<svg width="19" height="20" viewBox="0 0 19 20" fill="none" xmlns="http://www.w3.org/2000/svg">
<path d="M11.1073 18.8891H9.99712V20H12.2189V12.2219H13.329V7.77732H12.2189L12.2181 0H9.99634V1.11093H11.1065V18.889L11.1073 18.8891Z" fill="black"/>
<path d="M9.99687 1.11084H8.88672V2.22177H9.99687V1.11084Z" fill="black"/>
<path d="M8.88603 2.22168H7.77588V3.33261H8.88603V2.22168Z" fill="black"/>
<path d="M16.6614 2.22168V3.33261H17.7715V2.22168H16.6614Z" fill="black"/>
<path d="M7.77519 3.33252H6.66504V4.44345H7.77519V3.33252Z" fill="black"/>
<path d="M14.4402 3.33252H13.3301V4.44345H14.4402V3.33252Z" fill="black"/>
<path d="M18.8824 3.33252H17.7722V16.6652H18.8824V3.33252Z" fill="black"/>
<path d="M6.66435 4.4458H5.5542V5.55673H6.66435V4.4458Z" fill="black"/>
<path d="M15.5511 15.5567V4.4458H14.4409V15.5567H15.5511Z" fill="black"/>
<path d="M5.5538 5.55664H1.11084V6.66757H5.553V5.55664H5.5538Z" fill="black"/>
<path d="M1.11093 6.66748H0V13.3346H1.11015V6.66748H1.11093Z" fill="black"/>
<path d="M1.11084 13.3325V14.4434H5.553V13.3325H1.11084Z" fill="black"/>
<path d="M5.5542 14.4458V15.5567H6.66435V14.4458H5.5542Z" fill="black"/>
<path d="M6.66504 15.5566V16.6676H7.77519V15.5566H6.66504Z" fill="black"/>
<path d="M13.3289 16.6676H14.439V15.5566H13.3289V16.6676Z" fill="black"/>
<path d="M7.77466 16.6675V17.7784H8.88481V16.6675H7.77466Z" fill="black"/>
<path d="M17.7715 16.6675H16.6614V17.7784H17.7715V16.6675Z" fill="black"/>
<path d="M8.8855 17.7783V18.8892H9.99565V17.7783H8.8855Z" fill="black"/>
</svg>
