<svg width="65" height="59" viewBox="0 0 65 59" fill="none" xmlns="http://www.w3.org/2000/svg">
<path d="M35 18C39.1667 22 45 32.2 35 41" stroke="black" stroke-width="5" stroke-linecap="round" stroke-linejoin="round"/>
<path d="M42.5 10.5C49.1667 16.8333 58.5 33.3 42.5 48.5M49 56C59.1667 47.8333 73.4 25.8 49 3" stroke="black" stroke-width="5" stroke-linecap="round"/>
<path d="M0 35.5V23C0 21.3431 1.34315 20 3 20H11.3691C12.098 20 12.802 19.7346 13.3495 19.2535L24.0197 9.87667C25.958 8.17323 29 9.54965 29 12.1302V47.0949C29 49.6384 26.0334 51.0279 24.0794 49.3995L11.8344 39.1953C11.2953 38.746 10.6157 38.5 9.91385 38.5H3C1.34315 38.5 0 37.1569 0 35.5Z" fill="black"/>
</svg>
